<?xml version="1.0" encoding="utf-8"?>
<svg xmlns="http://www.w3.org/2000/svg" viewBox="147.5757 91.6853 202.0158 83.661" width="130px" height="83.7px">
  <defs>
    <clipPath id="clippath27" transform="">
      <path d="M 0 0 L 841.89 0 L 841.89 595.276 L 0 595.276 Z" style="fill: none; clip-rule: nonzero;"/>
    </clipPath>
    <clipPath id="clippath28" transform="">
      <path d="M 0 0 L 841.89 0 L 841.89 595.276 L 0 595.276 Z" style="fill: none; clip-rule: nonzero;"/>
    </clipPath>
    <clipPath id="clippath29" transform="">
      <path d="M 0 0 L 841.89 0 L 841.89 595.276 L 0 595.276 Z" style="fill: none; clip-rule: nonzero;"/>
    </clipPath>
    <clipPath id="clippath30" transform="">
      <path d="M 0 0 L 841.89 0 L 841.89 595.276 L 0 595.276 Z" style="fill: none; clip-rule: nonzero;"/>
    </clipPath>
  </defs>
  <g transform="matrix(1, 0, 0, -1, 274.8565368652344, 104.96746826171875)">
    <path d="M 0 0 L 5.323 -5.304 L -6.052 -16.709 L -16.697 -16.715 Z" style="fill: rgb(46, 48, 146); fill-opacity: 1;"/>
  </g>
  <g transform="matrix(1, 0, 0, -1, 320.8885192871094, 109.67034912109375)">
    <path d="M 0 0 L 18.009 17.985 L 28.703 17.973 L 5.347 -5.341 Z" style="fill: rgb(46, 48, 146); fill-opacity: 1;"/>
  </g>
  <g transform="matrix(1, 0, 0, -1, 315.2013244628906, 116.95547485351562)">
    <path d="M 0 0 L -0.024 -0.012 L -13.149 13.051 L -7.875 18.337 L 5.395 5.14 L 5.468 5.007 L 9.77 0.681 L 4.545 -4.551 Z" style="fill: rgb(39, 170, 225); fill-opacity: 1;"/>
  </g>
  <g transform="matrix(1, 0, 0, -1, 276.7037353515625, 116.22027587890625)">
    <path d="M 0 0 L 24.304 24.322 L 29.627 19.018 L 5.298 -5.304 Z" style="fill: rgb(46, 48, 146); fill-opacity: 1;"/>
  </g>
  <g style="clip-path: url(&quot;#clippath27&quot;);" transform="matrix(1, 0, 0, -1, 58.59772872924805, 547.6380615234375)">
    <g transform="translate(88.9785 415.1402)">
      <path d="M 0 0 L 9.551 0 C 12.395 0 14.655 -0.711 16.308 -2.114 C 17.961 -3.53 18.811 -5.456 18.811 -7.917 C 18.811 -10.536 17.912 -12.541 16.186 -13.944 C 14.437 -15.36 12.103 -16.053 9.236 -16.053 L 6.222 -16.053 L 6.222 -22.542 L 0 -22.542 Z M 9.114 -11.222 C 10.183 -11.222 11.058 -10.948 11.69 -10.402 C 12.322 -9.874 12.638 -9.144 12.638 -8.276 C 12.638 -6.258 11.447 -5.244 9.065 -5.244 L 6.222 -5.244 L 6.222 -11.222 Z" style="fill: rgb(46, 48, 146); fill-opacity: 1;"/>
    </g>
  </g>
  <g style="clip-path: url(&quot;#clippath27&quot;);" transform="matrix(1, 0, 0, -1, 58.59772872924805, 547.6380615234375)">
    <g transform="translate(111.7513 415.1402)">
      <path d="M 0 0 L 10.524 0 C 12.176 0 13.61 -0.213 14.85 -0.638 C 16.041 -1.057 17.159 -1.786 18.204 -2.838 C 19.249 -3.864 19.759 -5.487 19.759 -7.698 C 19.759 -9.387 19.346 -10.821 18.544 -11.988 C 17.766 -13.148 16.624 -14.066 15.166 -14.674 L 20.488 -22.542 L 13.367 -22.542 L 8.895 -15.731 L 6.149 -15.731 L 6.149 -22.542 L 0 -22.542 Z M 10.256 -10.821 C 11.326 -10.821 12.128 -10.578 12.711 -10.11 C 13.27 -9.643 13.562 -8.98 13.562 -8.154 C 13.562 -7.249 13.27 -6.562 12.687 -6.106 C 12.103 -5.645 11.277 -5.408 10.232 -5.408 L 6.149 -5.408 L 6.149 -10.821 Z" style="fill: rgb(46, 48, 146); fill-opacity: 1;"/>
    </g>
  </g>
  <g style="clip-path: url(&quot;#clippath27&quot;);" transform="matrix(1, 0, 0, -1, 58.59772872924805, 547.6380615234375)">
    <g transform="translate(135.3992 403.8145)">
      <path d="M 0 0 C 0 3.275 1.142 6.052 3.451 8.336 C 5.76 10.615 8.604 11.763 12.006 11.763 C 15.433 11.763 18.277 10.633 20.537 8.397 C 22.822 6.149 23.964 3.409 23.964 0.122 C 23.964 -3.153 22.822 -5.93 20.513 -8.215 C 18.228 -10.499 15.36 -11.636 11.958 -11.636 C 8.531 -11.636 5.687 -10.524 3.427 -8.281 C 1.142 -6.034 0 -3.275 0 0 M 17.669 0 C 17.669 1.683 17.134 3.135 16.065 4.332 C 14.971 5.529 13.586 6.125 11.958 6.125 C 10.305 6.125 8.944 5.553 7.899 4.381 C 6.854 3.214 6.319 1.792 6.319 0.122 C 6.319 -1.593 6.854 -3.045 7.923 -4.229 C 8.968 -5.414 10.329 -6.027 12.006 -6.027 C 13.683 -6.027 15.044 -5.426 16.089 -4.265 C 17.134 -3.099 17.669 -1.683 17.669 0" style="fill: rgb(46, 48, 146); fill-opacity: 1;"/>
    </g>
  </g>
  <g style="clip-path: url(&quot;#clippath27&quot;);" transform="matrix(1, 0, 0, -1, 58.59772872924805, 547.6380615234375)">
    <g transform="translate(162.9844 415.1402)">
      <path d="M 0 0 L 9.503 0 C 12.322 0 14.582 -0.711 16.259 -2.114 C 17.912 -3.53 18.738 -5.456 18.738 -7.917 C 18.738 -10.536 17.863 -12.541 16.114 -13.944 C 14.364 -15.36 12.055 -16.053 9.187 -16.053 L 6.149 -16.053 L 6.149 -22.542 L 0 -22.542 Z M 9.041 -11.222 C 10.11 -11.222 10.985 -10.948 11.617 -10.402 C 12.273 -9.874 12.589 -9.144 12.589 -8.276 C 12.589 -6.258 11.374 -5.244 9.017 -5.244 L 6.149 -5.244 L 6.149 -11.222 Z" style="fill: rgb(46, 48, 146); fill-opacity: 1;"/>
    </g>
  </g>
  <g transform="matrix(1, 0, 0, -1, 58.59772872924805, 547.6380615234375)">
    <path d="M 185.927 415.14 L 192.149 415.14 L 192.149 392.598 L 185.927 392.598 Z" style="fill: rgb(46, 48, 146); fill-opacity: 1;"/>
  </g>
  <g transform="matrix(1, 0, 0, -1, 258.4513244628906, 132.49786376953125)">
    <path d="M 0 0 L 17.863 0 L 17.863 -5.323 L 6.076 -5.323 L 6.076 -8.768 L 16.794 -8.768 L 16.794 -13.696 L 6.076 -13.696 L 6.076 -17.213 L 18.034 -17.213 L 18.034 -22.542 L 0 -22.542 Z" style="fill: rgb(46, 48, 146); fill-opacity: 1;"/>
  </g>
  <g transform="matrix(1, 0, 0, -1, 287.78631591796875, 137.98455810546875)">
    <path d="M 0 0 L -6.635 0 L -6.635 5.487 L 12.881 5.487 L 12.881 0 L 6.149 0 L 6.149 -17.055 L 0 -17.055 Z" style="fill: rgb(46, 48, 146); fill-opacity: 1;"/>
  </g>
  <g transform="matrix(1, 0, 0, -1, 310.77801513671875, 132.3338623046875)">
    <path d="M 0 0 L 5.93 0 L 15.384 -22.706 L 8.798 -22.706 L 7.17 -18.69 L -1.41 -18.69 L -2.99 -22.706 L -9.479 -22.706 Z M 5.395 -13.86 L 2.916 -7.449 L 0.413 -13.86 Z" style="fill: rgb(46, 48, 146); fill-opacity: 1;"/>
  </g>
  <g style="clip-path: url(&quot;#clippath28&quot;);" transform="matrix(1, 0, 0, -1, 58.59772872924805, 547.6380615234375)">
    <g transform="translate(271.5748 395.9764)">
      <path d="M 0 0 L 3.427 4.138 C 5.663 2.345 8.045 1.434 10.645 1.434 C 12.347 1.434 13.173 1.944 13.173 2.983 C 13.173 3.494 12.93 3.912 12.444 4.224 C 11.933 4.527 10.621 4.928 8.458 5.426 C 6.295 5.912 4.521 6.641 3.111 7.613 C 1.75 8.567 1.045 10.117 1.045 12.267 C 1.045 14.406 1.823 16.162 3.378 17.511 C 4.934 18.854 7.048 19.528 9.673 19.528 C 11.569 19.528 13.246 19.279 14.728 18.781 C 16.211 18.295 17.572 17.548 18.811 16.533 L 15.725 12.134 C 13.659 13.616 11.569 14.352 9.503 14.352 C 8.798 14.352 8.263 14.212 7.875 13.932 C 7.461 13.66 7.267 13.313 7.267 12.912 C 7.267 12.377 7.534 11.952 8.045 11.642 C 8.579 11.326 9.916 10.937 12.055 10.451 C 14.218 9.965 15.992 9.217 17.353 8.184 C 18.739 7.164 19.419 5.645 19.419 3.664 C 19.419 1.343 18.617 -0.474 16.989 -1.768 C 15.36 -3.081 13.173 -3.731 10.427 -3.731 C 8.434 -3.731 6.538 -3.421 4.715 -2.789 C 2.917 -2.151 1.337 -1.233 0 0" style="fill: rgb(46, 48, 146); fill-opacity: 1;"/>
    </g>
  </g>
  <g transform="matrix(1, 0, 0, -1, 161.5509338378906, 166.56005859375)">
    <path d="M 0 0 L 1.41 0 L 6.027 -6.009 L 6.027 0 L 7.534 0 L 7.534 -8.646 L 6.27 -8.646 L 1.507 -2.491 L 1.507 -8.646 L 0 -8.646 Z" style="fill: rgb(39, 170, 225); fill-opacity: 1;"/>
  </g>
  <g transform="matrix(1, 0, 0, -1, 181.43173217773435, 166.56005859375)">
    <path d="M 0 0 L 1.628 0 L 4.253 -4.107 L 6.902 0.006 L 8.531 0 L 8.531 -8.646 L 7 -8.646 L 7 -2.443 L 4.278 -6.538 L 4.205 -6.538 L 1.507 -2.461 L 1.507 -8.646 L 0 -8.646 Z" style="fill: rgb(39, 170, 225); fill-opacity: 1;"/>
  </g>
  <g style="clip-path: url(&quot;#clippath29&quot;);" transform="matrix(1, 0, 0, -1, 58.59772872924805, 547.6380615234375)">
    <g transform="translate(143.3223 376.7337)">
      <path d="M 0 0 C 0 1.264 0.437 2.315 1.288 3.184 C 2.139 4.071 3.232 4.496 4.545 4.496 C 5.857 4.496 6.927 4.071 7.777 3.208 C 8.628 2.345 9.065 1.3 9.065 0.055 C 9.065 -1.209 8.628 -2.26 7.777 -3.129 C 6.902 -4.01 5.833 -4.442 4.521 -4.442 C 3.232 -4.442 2.139 -4.016 1.288 -3.153 C 0.437 -2.291 0 -1.246 0 0 M 7.461 0 C 7.461 0.863 7.194 1.598 6.611 2.199 C 6.052 2.795 5.371 3.099 4.521 3.099 C 3.67 3.099 2.965 2.801 2.43 2.206 C 1.871 1.628 1.604 0.905 1.604 0.055 C 1.604 -0.808 1.871 -1.543 2.43 -2.145 C 2.989 -2.752 3.694 -3.05 4.545 -3.05 C 5.396 -3.05 6.076 -2.752 6.635 -2.163 C 7.194 -1.574 7.461 -0.845 7.461 0" style="fill: rgb(39, 170, 225); fill-opacity: 1;"/>
    </g>
  </g>
  <g style="clip-path: url(&quot;#clippath29&quot;);" transform="matrix(1, 0, 0, -1, 58.59772872924805, 547.6380615234375)">
    <g transform="translate(164.3696 381.078)">
      <path d="M 0 0 L 3.864 0 C 4.35 0 4.788 -0.062 5.177 -0.201 C 5.566 -0.328 5.906 -0.553 6.222 -0.863 C 6.562 -1.179 6.708 -1.622 6.708 -2.193 C 6.708 -2.692 6.586 -3.081 6.368 -3.39 C 6.149 -3.7 5.857 -3.95 5.468 -4.15 C 6.027 -4.344 6.441 -4.593 6.732 -4.928 C 7.048 -5.25 7.194 -5.693 7.194 -6.252 C 7.194 -7.024 6.902 -7.619 6.319 -8.033 C 5.76 -8.446 4.982 -8.646 3.986 -8.646 L 0 -8.646 Z M 3.548 -3.64 C 4.083 -3.64 4.448 -3.548 4.764 -3.348 C 5.055 -3.153 5.201 -2.868 5.201 -2.473 C 5.201 -2.127 5.055 -1.853 4.788 -1.653 C 4.521 -1.452 4.156 -1.361 3.67 -1.361 L 1.483 -1.361 L 1.483 -3.64 Z M 4.01 -7.285 C 4.521 -7.285 4.934 -7.188 5.225 -6.987 C 5.517 -6.799 5.663 -6.489 5.663 -6.112 C 5.663 -5.73 5.517 -5.432 5.225 -5.225 C 4.934 -5.025 4.496 -4.928 3.889 -4.928 L 1.483 -4.928 L 1.483 -7.285 Z" style="fill: rgb(39, 170, 225); fill-opacity: 1;"/>
    </g>
  </g>
  <g transform="matrix(1, 0, 0, -1, 58.59772872924805, 547.6380615234375)">
    <path d="M 183.497 381.078 L 185.004 381.078 L 185.004 372.432 L 183.497 372.432 Z" style="fill: rgb(39, 170, 225); fill-opacity: 1;"/>
  </g>
  <g transform="matrix(1, 0, 0, -1, 256.06951904296875, 166.56005859375)">
    <path d="M 0 0 L 1.507 0 L 1.507 -7.261 L 6.076 -7.261 L 6.076 -8.646 L 0 -8.646 Z" style="fill: rgb(39, 170, 225); fill-opacity: 1;"/>
  </g>
  <g transform="matrix(1, 0, 0, -1, 58.59772872924805, 547.6380615234375)">
    <path d="M 215.335 381.078 L 216.866 381.078 L 216.866 372.432 L 215.335 372.432 Z" style="fill: rgb(39, 170, 225); fill-opacity: 1;"/>
  </g>
  <g transform="matrix(1, 0, 0, -1, 290.9701232910156, 166.4931640625)">
    <path d="M 0 0 L 1.41 0 L 5.201 -8.713 L 3.597 -8.719 L 2.722 -6.629 L -1.361 -6.629 L -2.26 -8.713 L -3.816 -8.713 Z M 2.163 -5.274 L 0.681 -1.817 L -0.802 -5.274 Z" style="fill: rgb(39, 170, 225); fill-opacity: 1;"/>
  </g>
  <g style="clip-path: url(&quot;#clippath30&quot;);" transform="matrix(1, 0, 0, -1, 58.59772872924805, 547.6380615234375)">
    <g transform="translate(249.2151 381.078)">
      <path d="M 0 0 L 3.84 0 C 4.375 0 4.861 -0.079 5.274 -0.218 C 5.687 -0.365 6.1 -0.644 6.489 -1.027 C 6.854 -1.41 7.073 -1.975 7.073 -2.728 C 7.073 -3.421 6.878 -3.998 6.514 -4.442 C 6.149 -4.879 5.639 -5.189 4.982 -5.365 L 7.34 -8.646 L 5.541 -8.646 L 3.403 -5.632 L 1.507 -5.632 L 1.507 -8.646 L 0 -8.646 Z M 3.743 -4.271 C 4.278 -4.271 4.715 -4.15 5.031 -3.877 C 5.371 -3.621 5.517 -3.269 5.517 -2.831 C 5.517 -2.364 5.371 -1.999 5.055 -1.756 C 4.739 -1.514 4.302 -1.379 3.719 -1.379 L 1.507 -1.379 L 1.507 -4.271 Z" style="fill: rgb(39, 170, 225); fill-opacity: 1;"/>
    </g>
  </g>
  <g transform="matrix(1, 0, 0, -1, 58.59772872924805, 547.6380615234375)">
    <path d="M 268.367 381.078 L 269.898 381.078 L 269.898 372.432 L 268.367 372.432 Z" style="fill: rgb(39, 170, 225); fill-opacity: 1;"/>
  </g>
  <g transform="matrix(1, 0, 0, -1, 344.0016174316406, 166.4931640625)">
    <path d="M 0 0 L 1.41 0 L 5.201 -8.713 L 3.573 -8.719 L 2.722 -6.629 L -1.361 -6.629 L -2.26 -8.713 L -3.816 -8.713 Z M 2.163 -5.274 L 0.656 -1.817 L -0.802 -5.274 Z" style="fill: rgb(39, 170, 225); fill-opacity: 1;"/>
  </g>
  <g transform="matrix(1, 0, 0, -1, 58.59772872924805, 547.6380615234375)">
    <path d="M 88.978 381.078 L 90.509 381.078 L 90.509 372.432 L 88.978 372.432 Z" style="fill: rgb(39, 170, 225); fill-opacity: 1;"/>
  </g>
</svg>